<svg clip-rule="evenodd" fill-rule="evenodd" fill='#fff' height="512" image-rendering="optimizeQuality" shape-rendering="geometricPrecision" text-rendering="geometricPrecision" viewBox="0 0 1.70666 1.70666" width="512" xmlns="http://www.w3.org/2000/svg"><g id="Layer_x0020_1" fill-rule="nonzero"><path d="m1.35328.691902c.0875906-.132677.124516-.271933.116827-.387921-.0078189-.117996-.0638386-.224535-.180854-.253957-.202933-.0510236-.295882.132102-.527803.0720039-.118343-.0306772-.198827-.108512-.344028-.0720039-.117008.0294173-.173035.135961-.180854.253957-.00770866.116283.0294213.255949.117492.388933l.00003543-.00002362c.00603937.0091063.00280709.0331693.00479528.0746654h.988894c.00238583-.0496614-.00137795-.0665433.00549606-.0756535zm.156618-.390421c.00813386.122791-.0300039.269236-.120657.408276.00000787.0113819-.00027165.0388661-.00261417.0776772-.00035039.0116378-.00900394.0200709-.0199764.0200709h-1.02663c-.0104803.00001181-.0192913-.00815748-.0199409-.0187559l.0199409-.00122047-.0198976.00117323c-.00241732-.0394843-.00270079-.0674449-.00269291-.0789449-.0906535-.139039-.128791-.285484-.120657-.408276.00895669-.135213.0764134-.256319.210976-.290154.224035-.0563307.308335.128933.52748.0721614.128492-.0332874.20174-.112878.363689-.0721614.134567.0338346.20202.154941.210976.290154z"/><path d="m1.31887.787528v.120988c0 .0369724-.0303228.0672598-.0672559.0672598h-.796567c-.0369724 0-.0672559-.0303268-.0672559-.0672598v-.120988c0-.0110276.00894094-.0199724.0199724-.0199724h.891134c.0110315 0 .0199724.00894488.0199724.0199724zm-.0399449.120988v-.101012h-.851189v.101012c0 .0150315.0122756.027311.027311.027311h.796567c.0150315 0 .027311-.0122756.027311-.027311z"/><path d="m1.11409.961819c-.0128346.0509213-.125059.503591-.130185.512543l-.11335.221366.00006693.00005118c-.00718504.0140433-.0283976.0154055-.0361732-.00132283l-.112594-.221807-.00004724.00002362-.129516-.511996-.0000315.00000787c-.00317717-.0126181.00633071-.0249803.0197283-.0248583h.483051c.0135945 0 .0230866.013252.0190512.0259921zm-.165882.494972.121232-.481016h-.432213l.121209.480917.0945.186157.0952717-.186059z"/><path d="m.553083 1.07123c-.0262992 0-.0262992.0399488 0 .0399488h.600492c.0262992 0 .0262992-.0399488 0-.0399488z"/><path d="m.605713 1.2156c-.0262953 0-.0262953.0399488 0 .0399488h.495236c.0262953 0 .0262953-.0399488 0-.0399488z"/><path d="m.645185 1.35998c-.0262953 0-.0262953.0399488 0 .0399488h.416287c.0262953 0 .0262953-.0399488 0-.0399488z"/><path d="m.711984 1.50435c-.0262953 0-.0262953.0399449 0 .0399449h.282276c.0262953 0 .0262953-.0399449 0-.0399449z"/></g></svg>