<svg image-rendering="optimizeQuality" fill="#fff" shape-rendering="geometricPrecision" text-rendering="geometricPrecision" xmlns="http://www.w3.org/2000/svg" viewBox="0 0 512 512" style="enable-background:new 0 0 512 512" xml:space="preserve"><path d="M481.8 109.1c-1.5-23-8-43.6-18.7-59.6-11.7-17.5-27.9-28.9-48.1-34-9.2-2.3-18-3.5-26.7-3.5-22.5 0-41 7.7-60.6 15.9-19.9 8.3-40.4 16.9-66 18C266.1 67 280.8 77 306.9 77c3.3 0 6 2.7 6 6s-2.7 6-6 6c-31.8 0-46.6 14.8-46.6 46.6 0 3.3-2.7 6-6 6s-6-2.7-6-6c0-31.8-14.8-46.6-46.6-46.6-3.3 0-6-2.7-6-6s2.7-6 6-6c26.2 0 40.9-10.1 45.2-31.4-24-1.6-43.6-9.8-62.6-17.8-19.6-8.2-38.1-15.9-60.6-15.9-8.7 0-17.4 1.1-26.7 3.5-20.3 5.1-36.5 16.6-48.1 34C38.2 65.4 31.7 86 30.2 109c-1.3 20.6 1.1 42.4 7.1 64.3 64.6-4.1 96-39.8 96-108.6 0-3.3 2.7-6 6-6s6 2.7 6 6c0 73.4 35.7 109 109 109 3.3 0 6 2.7 6 6s-2.7 6-6 6c-73.4 0-109 35.7-109 109 0 3.3-2.7 6-6 6s-6-2.7-6-6c0-67.4-30.2-103-92-108.3 7.1 21.4 17.6 42.8 31 63.4l2 3v3.6c0 11.2.5 70.2 17.1 128.5 9 31.6 21.1 57.2 36 76.2 17.3 22 38.7 35.1 63.5 38.9h.3c3 0 5.3-1 7.2-3.1 12-13.1 8.9-57.7 7-84.3-.8-11.2-1.5-20.8-1.3-28.1 1-47.1 27.8-68.5 52.2-68.5 24.2 0 50.7 21.4 51.7 68.5.2 7-.5 16.5-1.3 27.4-1.9 27-5 72.3 7 85.2 1.8 1.9 3.7 2.7 6.6 2.8l.6-.1c25.4-3.7 47.2-17.2 64.7-40 14.9-19.4 27-45.5 35.8-77.6 8.2-29.9 12.4-59.7 14.4-83-4.6 10-6.9 22.5-6.9 37.2 0 3.3-2.7 6-6 6s-6-2.7-6-6c0-23.2-5.7-40.6-17-51.9s-28.7-17-51.9-17c-3.3 0-6-2.7-6-6s2.7-6 6-6c23.2 0 40.6-5.7 51.9-17 11.2-11.2 17-28.7 17-51.9 0-3.3 2.7-6 6-6s6 2.7 6 6c0 23.2 5.7 40.6 17 51.9.2.2.4.4.6.5 25.6-42.8 38.1-88.6 35.3-129.9z" style="fill:none"/><path d="M435.8 299.2c-2 23.3-6.1 53.2-14.4 83-8.9 32.1-20.9 58.3-35.8 77.6-17.6 22.8-39.3 36.3-64.7 40l-.6.1c-2.9 0-4.8-.8-6.6-2.8-12-12.9-8.9-58.1-7-85.2.8-11 1.4-20.4 1.3-27.4-1-47.1-27.5-68.5-51.7-68.5-24.4 0-51.2 21.4-52.2 68.5-.2 7.2.5 16.9 1.3 28.1 1.9 26.6 5.1 71.2-7 84.3-1.9 2.1-4.2 3.1-7.2 3.1h-.3c-24.8-3.8-46.2-16.9-63.5-38.9-14.9-19-27-44.6-36-76.2-16.6-58.3-17.2-117.2-17.1-128.5v-3.6l-2-3c-13.5-20.6-23.9-42-31-63.4-4.1-.4-8.4-.6-12.8-.7 7.5 23.8 18.9 47.7 33.8 70.6-.1 11.5.6 72 17.6 131.8 9.4 33.1 22.2 60.1 38.1 80.3 19.4 24.6 43.5 39.2 71.6 43.4l.4.1H191.2c6.4-.1 11.8-2.5 15.9-7 15.5-16.9 12.4-61 10.1-93.3-.8-10.9-1.4-20.2-1.3-26.9.8-39 21.4-56.8 40.2-56.8 18.5 0 38.8 17.8 39.7 56.8.1 6.5-.5 15.7-1.2 26.3-2.8 40.8-4.2 78.8 10.2 94.2 4.1 4.4 9.2 6.6 15.5 6.6h1.5l.6-.2h.1c28.6-4.2 53-19.2 72.5-44.6 15.9-20.6 28.6-48.1 37.9-81.7 10.9-39.4 14.7-78.7 16.1-103.8-1.1.9-2.2 1.9-3.2 2.9-4 4.3-7.4 9.2-10 14.8zM327.7 27.9c19.6-8.2 38.1-15.9 60.6-15.9 8.7 0 17.4 1.1 26.7 3.5 20.3 5.1 36.5 16.6 48.1 34 10.7 16 17.2 36.6 18.7 59.6 2.8 41.4-9.7 87.2-35.4 130.2 2.8 2.7 6.1 5.2 9.7 7.2 27.3-45.4 40.7-94 37.7-138.2-1.7-25.1-8.8-47.7-20.7-65.5-13.4-20-31.9-33.1-55.2-39C407.7 1.2 398 0 388.3 0c-24.9 0-44.5 8.2-65.2 16.9-19.1 8-38.8 16.2-62.8 17.1.2 4.3.6 8.3 1.4 12 25.6-1.2 46.2-9.8 66-18.1zM30.2 109c1.5-23 8-43.6 18.7-59.6C60.5 32 76.7 20.5 97 15.4c9.2-2.3 18-3.5 26.7-3.5 22.5 0 41 7.7 60.6 15.9 19 7.9 38.6 16.1 62.6 17.8.7-3.7 1.2-7.6 1.4-11.9-22.4-1.5-41.1-9.3-59.3-16.9C168.3 8.1 148.7-.1 123.8-.1c-9.7 0-19.4 1.2-29.6 3.8-23.3 5.9-41.8 19-55.2 39-11.9 17.8-19 40.4-20.7 65.5-1.4 21.1 1 43.2 6.7 65.5 4.2 0 8.3-.1 12.3-.4-6-21.9-8.5-43.6-7.1-64.3z"/><path d="M133.2 294.8c0 3.3 2.7 6 6 6s6-2.7 6-6c0-73.4 35.7-109 109-109 3.3 0 6-2.7 6-6s-2.7-6-6-6c-73.4 0-109-35.7-109-109 0-3.3-2.7-6-6-6s-6 2.7-6 6c0 68.9-31.4 104.5-96 108.6-4 .3-8.1.4-12.3.4h-.8c-3.3 0-6 2.7-6 6s2.7 6 6 6c1.4 0 2.8 0 4.2.1 4.4.1 8.7.3 12.8.7 62 5.2 92.1 40.8 92.1 108.2zm30.5-139.5c11.3 11.3 25.8 19.5 43.3 24.5-17.5 5-32 13.2-43.3 24.5-11.3 11.3-19.5 25.8-24.5 43.3-5-17.5-13.2-32-24.5-43.3-11.3-11.3-25.8-19.5-43.3-24.5 17.5-5 32-13.2 43.3-24.5 11.3-11.3 19.5-25.8 24.5-43.3 5.1 17.5 13.2 32 24.5 43.3zM201.6 77c-3.3 0-6 2.7-6 6s2.7 6 6 6c31.8 0 46.6 14.8 46.6 46.6 0 3.3 2.7 6 6 6s6-2.7 6-6c0-31.8 14.8-46.6 46.6-46.6 3.3 0 6-2.7 6-6s-2.7-6-6-6c-26.1 0-40.8-10-45.2-31.1-.8-3.7-1.2-7.6-1.4-12 0-1.2-.1-2.3-.1-3.5 0-3.3-2.7-6-6-6s-6 2.7-6 6c0 1.1 0 2.3-.1 3.4-.2 4.3-.6 8.3-1.4 11.9-4.1 21.2-18.8 31.3-45 31.3zm30.9 6c9.8-4.6 17.1-11.9 21.8-21.8 4.6 9.8 11.9 17.1 21.8 21.8-9.8 4.6-17.1 11.9-21.8 21.8-4.7-9.9-12-17.2-21.8-21.8zM497.7 255.6c-17 0-31-3.1-41.6-9.2-3.6-2.1-6.8-4.5-9.7-7.2-.2-.2-.4-.4-.6-.5-11.2-11.2-17-28.7-17-51.9 0-3.3-2.7-6-6-6s-6 2.7-6 6c0 23.2-5.7 40.6-17 51.9-11.2 11.2-28.7 17-51.9 17-3.3 0-6 2.7-6 6s2.7 6 6 6c23.2 0 40.6 5.7 51.9 17s17 28.7 17 51.9c0 3.3 2.7 6 6 6s6-2.7 6-6c0-14.8 2.3-27.2 6.9-37.2 2.6-5.7 5.9-10.6 10-14.6 1-1 2.1-2 3.2-2.9 11.2-9.3 27.6-14 48.6-14 3.3 0 6-2.7 6-6s-2.5-6.3-5.8-6.3zm-89.3 20.5c-6.2-6.2-13.9-11.1-22.9-14.5 9-3.4 16.7-8.2 22.9-14.5 6.2-6.2 11.1-13.9 14.5-22.9 3.4 9 8.2 16.7 14.5 22.9 6.2 6.2 13.9 11.1 22.9 14.5-9 3.4-16.7 8.2-22.9 14.5-6.2 6.2-11.1 13.9-14.5 22.9-3.4-9-8.2-16.7-14.5-22.9z"/></svg>