<svg version="1.1" id="Layer_1" fill="#fff" image-rendering="optimizeQuality" shape-rendering="geometricPrecision" text-rendering="geometricPrecision" xmlns="http://www.w3.org/2000/svg" x="0" y="0" viewBox="0 0 512 512" style="enable-background:new 0 0 512 512" xml:space="preserve"><style>.st0{fill:none}</style><path class="st0" d="M243.5 149c13.3-3.2 23.3-15.3 23.3-29.6 0-16.8-13.7-30.4-30.4-30.4-11.6 0-21.7 6.5-26.8 16 16.6 9.3 29.1 25.1 33.9 44zM383.3 173.8c16.8 0 30.4-13.7 30.4-30.4 0-16.8-13.7-30.4-30.4-30.4s-30.4 13.7-30.4 30.4c-.1 16.7 13.6 30.4 30.4 30.4z"/><path class="st0" d="M335.5 295.6c0-38.9 31.6-70.5 70.5-70.5 15.3 0 29.4 4.9 41 13.2 25.3-42.7 37.6-88.1 34.8-129.2-1.5-23-8-43.6-18.7-59.6-11.7-17.5-27.9-28.9-48.1-34-9.2-2.3-18-3.5-26.7-3.5-22.5 0-41 7.7-60.6 15.9-21.2 8.9-43.2 18.1-71.3 18.1h-.8c-28.2 0-50.1-9.2-71.4-18.1-19.6-8.2-38.1-15.9-60.6-15.9-8.7 0-17.4 1.1-26.7 3.5-20.3 5.1-36.5 16.6-48.1 34-10.7 16-17.2 36.6-18.7 59.6-2.9 44.8 12 94.9 42.1 140.8l2 3v3.6c0 11.2.5 70.2 17.1 128.5 9 31.6 21.1 57.2 36 76.2 17.3 22 38.7 35.1 63.5 38.9h.3c3 0 5.3-1 7.2-3.1 12-13.1 8.9-57.7 7-84.3-.8-11.2-1.5-20.8-1.3-28.1 1-47.1 27.8-68.5 52.2-68.5 24.2 0 50.7 21.4 51.7 68.5.2 7-.5 16.5-1.3 27.4-1.9 27-5 72.3 7 85.2 1.8 1.9 3.7 2.7 6.6 2.8l.6-.1c25.4-3.7 47.2-17.2 64.7-40 14.9-19.4 27-45.5 35.8-77.6 1.8-6.4 3.3-12.8 4.7-19.1-6.4 1.9-13.1 2.9-20.1 2.9-38.8 0-70.4-31.6-70.4-70.5zm47.8-194.7c23.4 0 42.4 19 42.4 42.4s-19 42.4-42.4 42.4-42.4-19-42.4-42.4 19-42.4 42.4-42.4zm-137.8 60c.2 1.9.3 3.8.3 5.7 0 38.9-31.6 70.5-70.5 70.5s-70.5-31.6-70.5-70.5 31.6-70.5 70.5-70.5c8.2 0 16.1 1.4 23.4 4C205.8 86.4 220 77 236.4 77c23.4 0 42.4 19 42.4 42.4 0 20.3-14.3 37.3-33.3 41.5z"/><path d="M493.8 108.3c-1.7-25.1-8.8-47.7-20.7-65.5-13.4-20-31.9-33.1-55.2-39C407.7 1.2 398 0 388.3 0c-24.9 0-44.5 8.2-65.2 16.9-20.1 8.3-41 17.1-66.7 17.1h-.8c-25.7 0-46.6-8.7-66.7-17.2C168.2 8.1 148.6-.1 123.7-.1c-9.7 0-19.4 1.2-29.6 3.8-23.3 5.9-41.8 19-55.2 39-11.9 17.8-19 40.4-20.7 65.5-3.1 47.4 12.5 100 44 148.2-.1 11.5.6 72 17.6 131.8 9.4 33.1 22.2 60.1 38.1 80.3 19.4 24.6 43.5 39.2 71.6 43.4l.4.1H191.1c6.4-.1 11.8-2.5 15.9-7 15.5-16.9 12.4-61 10.1-93.3-.8-10.9-1.4-20.2-1.3-26.9.8-39 21.4-56.8 40.2-56.8 18.5 0 38.8 17.8 39.7 56.8.1 6.5-.5 15.7-1.2 26.3-2.8 40.8-4.2 78.8 10.2 94.2 4.1 4.4 9.2 6.6 15.5 6.6h1.5l.6-.2h.1c28.6-4.2 53-19.2 72.5-44.6 15.9-20.6 28.6-48.1 37.9-81.7 2.6-9.4 4.8-18.7 6.6-27.9-4.2 2.3-8.7 4.2-13.4 5.6-1.4 6.3-3 12.7-4.7 19.1-8.9 32.1-20.9 58.3-35.8 77.6-17.6 22.8-39.3 36.3-64.7 40l-.6.1c-2.9 0-4.8-.8-6.6-2.8-12-12.9-8.9-58.1-7-85.2.8-11 1.4-20.4 1.3-27.4-1-47.1-27.5-68.5-51.7-68.5-24.4 0-51.2 21.4-52.2 68.5-.2 7.2.5 16.9 1.3 28.1 1.9 26.6 5.1 71.2-7 84.3-1.9 2.1-4.2 3.1-7.2 3.1h-.3c-24.8-3.8-46.2-16.9-63.5-38.9-14.9-19-27-44.6-36-76.2-16.6-58.3-17.2-117.2-17.1-128.5v-3.6l-2-3c-30.1-46-45-96-42.1-140.8 1.5-23 8-43.6 18.7-59.6C60.5 32 76.7 20.5 97 15.4c9.2-2.3 18-3.5 26.7-3.5 22.5 0 41 7.7 60.6 15.9 21.2 8.9 43.2 18.1 71.4 18.1h.8c28.2 0 50.1-9.2 71.4-18.1 19.6-8.2 38.1-15.9 60.6-15.9 8.7 0 17.4 1.1 26.7 3.5 20.3 5.1 36.5 16.6 48.1 34C474 65.4 480.5 86 482 109c2.8 41.1-9.6 86.5-34.8 129.2 3.3 2.4 6.4 5 9.3 7.9 27-45.2 40.3-93.8 37.3-137.8z"/><path d="M236.4 77c-16.4 0-30.7 9.4-37.7 23.1 3.8 1.3 7.5 3 10.9 5 5.1-9.5 15.2-16 26.8-16 16.8 0 30.4 13.7 30.4 30.4 0 14.3-9.9 26.4-23.3 29.6 1 3.8 1.6 7.8 2 11.9 19-4.2 33.3-21.2 33.3-41.4 0-23.6-19-42.6-42.4-42.6zM383.3 185.8c23.4 0 42.4-19 42.4-42.4s-19-42.4-42.4-42.4-42.4 19-42.4 42.4 19 42.4 42.4 42.4zm0-72.9c16.8 0 30.4 13.7 30.4 30.4 0 16.8-13.7 30.4-30.4 30.4s-30.4-13.7-30.4-30.4c-.1-16.7 13.6-30.4 30.4-30.4z"/><path d="M209.6 105c-3.5-1.9-7.1-3.6-10.9-5-7.3-2.6-15.2-4-23.4-4-38.9 0-70.5 31.6-70.5 70.5s31.6 70.5 70.5 70.5 70.5-31.6 70.5-70.5c0-1.9-.1-3.8-.3-5.7-.3-4.1-1-8-2-11.9-4.8-18.8-17.3-34.6-33.9-43.9zm-92.9 61.6c0-32.3 26.2-58.5 58.5-58.5s58.5 26.2 58.5 58.5-26.2 58.5-58.5 58.5c-32.2 0-58.5-26.3-58.5-58.5z"/><path d="M183.4 126.6c-3.3 0-6 2.7-6 6s2.7 6 6 6c10.9 0 19.8 8.9 19.8 19.8 0 3.3 2.7 6 6 6s6-2.7 6-6c0-17.5-14.3-31.8-31.8-31.8zM447 238.3c-11.6-8.3-25.7-13.2-41-13.2-38.9 0-70.5 31.6-70.5 70.5s31.6 70.5 70.5 70.5c7 0 13.8-1 20.1-2.9 4.7-1.4 9.2-3.3 13.4-5.6 22-12 36.9-35.3 36.9-62 0-19.2-7.8-36.7-20.3-49.4-2.7-2.9-5.8-5.6-9.1-7.9zm17.5 57.3c0 32.3-26.2 58.5-58.5 58.5s-58.5-26.2-58.5-58.5 26.2-58.5 58.5-58.5 58.5 26.2 58.5 58.5z"/><path d="M446 287.5c0-17.6-14.3-31.8-31.8-31.8-3.3 0-6 2.7-6 6s2.7 6 6 6c10.9 0 19.8 8.9 19.8 19.8 0 3.3 2.7 6 6 6s6-2.7 6-6z"/></svg>